<?xml version="1.0" encoding="UTF-8" standalone="no"?><!DOCTYPE svg PUBLIC "-//W3C//DTD SVG 1.1//EN" "http://www.w3.org/Graphics/SVG/1.1/DTD/svg11.dtd"><svg width="100%" height="100%" viewBox="0 0 1774 1135" version="1.1" xmlns="http://www.w3.org/2000/svg" xmlns:xlink="http://www.w3.org/1999/xlink" xml:space="preserve" xmlns:serif="http://www.serif.com/" style="fill-rule:evenodd;clip-rule:evenodd;stroke-linejoin:round;stroke-miterlimit:2;"><g><ellipse cx="886.876" cy="493.802" rx="886.876" ry="493.802" style="fill:#cb4848;"/><g><path d="M388.101,1082.51l-0,4.995l-20.532,-0l0,46.611l-6.577,-0l0,-46.611l-20.486,-0l-0,-4.995l47.595,0Z" style="fill-rule:nonzero;"/><path d="M396.455,1115.4c0,-2.663 0.437,-5.185 1.311,-7.565c0.874,-2.38 2.163,-4.464 3.866,-6.252c1.704,-1.788 3.807,-3.212 6.311,-4.272c2.503,-1.061 5.37,-1.591 8.599,-1.591c3.259,0 6.148,0.53 8.666,1.591c2.518,1.06 4.644,2.484 6.377,4.272c1.733,1.788 3.051,3.872 3.955,6.252c0.904,2.38 1.355,4.902 1.355,7.565c0,2.639 -0.451,5.136 -1.355,7.491c-0.904,2.356 -2.222,4.421 -3.955,6.197c-1.733,1.775 -3.859,3.181 -6.377,4.217c-2.518,1.036 -5.407,1.554 -8.666,1.554c-3.229,-0 -6.096,-0.518 -8.599,-1.554c-2.504,-1.036 -4.607,-2.442 -6.311,-4.217c-1.703,-1.776 -2.992,-3.841 -3.866,-6.197c-0.874,-2.355 -1.311,-4.852 -1.311,-7.491Zm6.577,0c0,1.973 0.311,3.841 0.934,5.605c0.622,1.763 1.511,3.317 2.666,4.661c1.155,1.344 2.57,2.411 4.244,3.2c1.674,0.789 3.563,1.184 5.666,1.184c2.104,-0 4.007,-0.395 5.711,-1.184c1.703,-0.789 3.155,-1.856 4.355,-3.2c1.2,-1.344 2.118,-2.898 2.755,-4.661c0.637,-1.764 0.955,-3.632 0.955,-5.605c0,-1.973 -0.318,-3.853 -0.955,-5.641c-0.637,-1.788 -1.555,-3.36 -2.755,-4.717c-1.2,-1.356 -2.652,-2.435 -4.355,-3.237c-1.704,-0.801 -3.607,-1.202 -5.711,-1.202c-2.103,0 -3.992,0.401 -5.666,1.202c-1.674,0.802 -3.089,1.881 -4.244,3.237c-1.155,1.357 -2.044,2.929 -2.666,4.717c-0.623,1.788 -0.934,3.668 -0.934,5.641Z" style="fill-rule:nonzero;"/><path d="M447.161,1096.46l6.577,-0l-0.267,6.252c1.393,-2.047 3.03,-3.613 4.911,-4.698c1.881,-1.086 4.081,-1.628 6.599,-1.628c0.208,-0 0.497,0.012 0.867,0.037c0.37,0.025 0.755,0.055 1.155,0.092c0.4,0.037 0.786,0.087 1.156,0.148c0.37,0.062 0.659,0.13 0.866,0.204l0,5.586c-0.681,-0.198 -1.451,-0.352 -2.31,-0.463c-0.86,-0.111 -1.497,-0.166 -1.911,-0.166c-1.748,-0 -3.304,0.271 -4.667,0.814c-1.362,0.542 -2.518,1.276 -3.466,2.201c-0.948,0.925 -1.674,1.985 -2.177,3.181c-0.504,1.196 -0.756,2.448 -0.756,3.755l0,22.344l-6.577,-0l0,-37.659Z" style="fill-rule:nonzero;"/><path d="M485.335,1086.03l-0,10.432l7.999,-0l-0,4.661l-7.999,0l-0,24.674c-0,0.814 0.126,1.499 0.378,2.054c0.251,0.554 0.592,0.998 1.022,1.331c0.429,0.333 0.94,0.568 1.533,0.703c0.592,0.136 1.229,0.204 1.911,0.204c0.829,-0 1.688,-0.068 2.577,-0.204c0.889,-0.135 1.659,-0.265 2.311,-0.388l0,4.476c-0.77,0.197 -1.77,0.395 -3,0.592c-1.229,0.197 -2.496,0.296 -3.799,0.296c-1.126,-0 -2.259,-0.13 -3.4,-0.389c-1.14,-0.259 -2.163,-0.672 -3.066,-1.239c-0.904,-0.567 -1.637,-1.301 -2.2,-2.201c-0.563,-0.9 -0.844,-2.004 -0.844,-3.311l-0,-26.598l-6.933,0l0,-4.661l6.933,-0l-0,-10.432l6.577,-0Z" style="fill-rule:nonzero;"/><path d="M507.999,1116.21c0.03,1.727 0.393,3.422 1.089,5.087c0.696,1.664 1.644,3.144 2.844,4.439c1.2,1.295 2.615,2.343 4.244,3.144c1.629,0.802 3.392,1.203 5.288,1.203c6.4,-0 10.651,-2.479 12.755,-7.436l5.999,0c-0.504,1.924 -1.348,3.644 -2.533,5.161c-1.185,1.516 -2.622,2.799 -4.311,3.847c-1.688,1.048 -3.555,1.843 -5.599,2.386c-2.044,0.542 -4.148,0.814 -6.311,0.814c-3.11,-0 -5.918,-0.555 -8.421,-1.665c-2.503,-1.11 -4.644,-2.589 -6.422,-4.439c-1.777,-1.85 -3.14,-3.989 -4.088,-6.418c-0.948,-2.43 -1.422,-4.976 -1.422,-7.64c-0,-2.49 0.474,-4.883 1.422,-7.176c0.948,-2.294 2.303,-4.316 4.066,-6.067c1.763,-1.751 3.896,-3.144 6.4,-4.18c2.503,-1.036 5.31,-1.554 8.421,-1.554c3.022,0 5.74,0.469 8.155,1.406c2.414,0.937 4.481,2.232 6.199,3.884c1.718,1.652 3.037,3.588 3.955,5.808c0.919,2.22 1.378,4.624 1.378,7.214l-0,2.182l-33.108,0Zm26.308,-4.217c-0.059,-1.578 -0.407,-3.058 -1.044,-4.439c-0.637,-1.381 -1.526,-2.59 -2.666,-3.626c-1.141,-1.035 -2.526,-1.849 -4.155,-2.441c-1.63,-0.592 -3.452,-0.888 -5.466,-0.888c-1.837,0 -3.541,0.321 -5.111,0.962c-1.57,0.641 -2.933,1.492 -4.089,2.552c-1.155,1.061 -2.066,2.276 -2.733,3.644c-0.666,1.369 -1.014,2.781 -1.044,4.236l26.308,-0Z" style="fill-rule:nonzero;"/><path d="M580.703,1086.03l-0,10.432l7.999,-0l-0,4.661l-7.999,0l-0,24.674c-0,0.814 0.126,1.499 0.377,2.054c0.252,0.554 0.593,0.998 1.022,1.331c0.43,0.333 0.941,0.568 1.534,0.703c0.592,0.136 1.229,0.204 1.911,0.204c0.829,-0 1.688,-0.068 2.577,-0.204c0.889,-0.135 1.659,-0.265 2.311,-0.388l-0,4.476c-0.77,0.197 -1.77,0.395 -3,0.592c-1.229,0.197 -2.496,0.296 -3.799,0.296c-1.126,-0 -2.259,-0.13 -3.4,-0.389c-1.141,-0.259 -2.163,-0.672 -3.066,-1.239c-0.904,-0.567 -1.637,-1.301 -2.2,-2.201c-0.563,-0.9 -0.844,-2.004 -0.844,-3.311l-0,-26.598l-6.933,0l-0,-4.661l6.933,-0l-0,-10.432l6.577,-0Z" style="fill-rule:nonzero;"/><path d="M599.501,1096.46l6.577,-0l-0.267,6.252c1.393,-2.047 3.029,-3.613 4.911,-4.698c1.881,-1.086 4.081,-1.628 6.599,-1.628c0.207,-0 0.496,0.012 0.867,0.037c0.37,0.025 0.755,0.055 1.155,0.092c0.4,0.037 0.785,0.087 1.155,0.148c0.371,0.062 0.66,0.13 0.867,0.204l-0,5.586c-0.681,-0.198 -1.452,-0.352 -2.311,-0.463c-0.859,-0.111 -1.496,-0.166 -1.911,-0.166c-1.748,-0 -3.303,0.271 -4.666,0.814c-1.363,0.542 -2.518,1.276 -3.466,2.201c-0.948,0.925 -1.674,1.985 -2.178,3.181c-0.503,1.196 -0.755,2.448 -0.755,3.755l-0,22.344l-6.577,-0l-0,-37.659Z" style="fill-rule:nonzero;"/><path d="M665.583,1134.41c-0.415,0.123 -0.956,0.228 -1.622,0.314c-0.667,0.087 -1.223,0.13 -1.667,0.13c-1.837,-0 -3.385,-0.586 -4.644,-1.757c-1.259,-1.172 -1.963,-2.966 -2.111,-5.383c-1.422,1.529 -2.822,2.762 -4.199,3.699c-1.378,0.938 -2.748,1.659 -4.111,2.164c-1.363,0.506 -2.733,0.845 -4.111,1.018c-1.377,0.172 -2.777,0.259 -4.199,0.259c-1.837,-0 -3.555,-0.247 -5.155,-0.74c-1.6,-0.493 -3,-1.196 -4.2,-2.109c-1.2,-0.912 -2.14,-2.01 -2.822,-3.292c-0.681,-1.283 -1.022,-2.713 -1.022,-4.291c0,-1.579 0.415,-2.929 1.244,-4.051c0.83,-1.122 1.934,-2.09 3.311,-2.904c1.378,-0.814 2.933,-1.498 4.666,-2.053c1.734,-0.555 3.511,-1.048 5.333,-1.48c1.822,-0.431 3.607,-0.845 5.355,-1.239c1.748,-0.395 3.311,-0.832 4.689,-1.313c1.377,-0.481 2.481,-1.036 3.31,-1.665c0.83,-0.629 1.245,-1.412 1.245,-2.349c-0,-1.085 -0.252,-2.047 -0.756,-2.886c-0.504,-0.838 -1.215,-1.547 -2.133,-2.127c-0.918,-0.579 -2.029,-1.017 -3.333,-1.313c-1.304,-0.296 -2.74,-0.444 -4.311,-0.444c-1.333,0 -2.592,0.142 -3.777,0.426c-1.185,0.283 -2.252,0.696 -3.2,1.239c-0.948,0.542 -1.733,1.208 -2.355,1.997c-0.622,0.79 -1.022,1.702 -1.2,2.738l-6.888,-0c0.148,-1.825 0.741,-3.44 1.778,-4.846c1.036,-1.406 2.355,-2.584 3.955,-3.533c1.6,-0.95 3.414,-1.671 5.444,-2.164c2.029,-0.493 4.11,-0.74 6.243,-0.74c2.311,0 4.496,0.234 6.555,0.703c2.059,0.468 3.874,1.184 5.444,2.145c1.57,0.962 2.815,2.177 3.733,3.644c0.918,1.468 1.378,3.188 1.378,5.161l-0,19.495c-0,0.962 0.289,1.733 0.866,2.312c0.578,0.58 1.296,0.87 2.156,0.87c0.385,-0 0.755,-0.05 1.111,-0.148l-0,4.513Zm-10.71,-21.234c-0.919,0.814 -2.111,1.486 -3.578,2.016c-1.466,0.53 -3.037,1.005 -4.71,1.424c-1.674,0.419 -3.356,0.826 -5.044,1.221c-1.689,0.395 -3.222,0.863 -4.6,1.406c-1.377,0.542 -2.496,1.202 -3.355,1.979c-0.859,0.777 -1.289,1.757 -1.289,2.941c0,1.06 0.222,1.96 0.667,2.7c0.444,0.74 1.022,1.35 1.733,1.831c0.711,0.481 1.526,0.833 2.444,1.055c0.919,0.222 1.852,0.333 2.8,0.333c2.725,-0 5.399,-0.691 8.021,-2.072c2.622,-1.381 4.926,-3.502 6.911,-6.363l-0,-8.471Z" style="fill-rule:nonzero;"/><path d="M702.734,1114.66c-0.059,-1.924 -0.37,-3.737 -0.933,-5.438c-0.563,-1.702 -1.363,-3.188 -2.4,-4.458c-1.037,-1.27 -2.296,-2.281 -3.777,-3.034c-1.481,-0.752 -3.17,-1.128 -5.066,-1.128c-1.926,0 -3.652,0.389 -5.177,1.165c-1.526,0.777 -2.808,1.832 -3.845,3.163c-1.036,1.332 -1.829,2.886 -2.377,4.661c-0.548,1.776 -0.822,3.663 -0.822,5.66c-0,1.998 0.274,3.885 0.822,5.66c0.548,1.776 1.341,3.342 2.377,4.698c1.037,1.357 2.319,2.43 3.845,3.219c1.525,0.789 3.251,1.184 5.177,1.184c1.925,-0 3.644,-0.376 5.155,-1.129c1.511,-0.752 2.785,-1.781 3.822,-3.089c1.037,-1.307 1.829,-2.83 2.377,-4.568c0.548,-1.739 0.822,-3.607 0.822,-5.605l0,-0.961Zm6.577,19.458l-6.577,-0l0,-5.66c-1.54,2.121 -3.422,3.718 -5.644,4.791c-2.222,1.072 -4.488,1.609 -6.799,1.609c-3.022,-0 -5.688,-0.518 -7.999,-1.554c-2.311,-1.036 -4.244,-2.448 -5.799,-4.236c-1.556,-1.788 -2.733,-3.872 -3.533,-6.252c-0.8,-2.379 -1.2,-4.901 -1.2,-7.565c-0,-2.663 0.385,-5.179 1.155,-7.546c0.77,-2.368 1.926,-4.439 3.466,-6.215c1.541,-1.776 3.459,-3.181 5.755,-4.217c2.296,-1.036 4.955,-1.554 7.977,-1.554c2.133,0 4.259,0.45 6.377,1.35c2.119,0.9 4.2,2.473 6.244,4.717l0,-19.532l6.577,-0l0,51.864Z" style="fill-rule:nonzero;"/><path d="M729.131,1082.25l0,6.399l-6.577,0l0,-6.399l6.577,-0Zm0,14.205l0,37.659l-6.577,-0l0,-37.659l6.577,-0Z" style="fill-rule:nonzero;"/><path d="M774.416,1096.46l-0,5.216l-27.02,27.449l27.02,-0l-0,4.994l-35.641,-0l-0,-4.772l26.664,-27.634l-26.664,-0l-0,-5.253l35.641,-0Z" style="fill-rule:nonzero;"/><path d="M790.592,1082.25l-0,6.399l-6.577,0l-0,-6.399l6.577,-0Zm-0,14.205l-0,37.659l-6.577,-0l-0,-37.659l6.577,-0Z" style="fill-rule:nonzero;"/><path d="M800.946,1115.4c0,-2.663 0.437,-5.185 1.311,-7.565c0.874,-2.38 2.163,-4.464 3.866,-6.252c1.704,-1.788 3.807,-3.212 6.311,-4.272c2.503,-1.061 5.37,-1.591 8.599,-1.591c3.259,0 6.147,0.53 8.666,1.591c2.518,1.06 4.644,2.484 6.377,4.272c1.733,1.788 3.051,3.872 3.955,6.252c0.904,2.38 1.355,4.902 1.355,7.565c0,2.639 -0.451,5.136 -1.355,7.491c-0.904,2.356 -2.222,4.421 -3.955,6.197c-1.733,1.775 -3.859,3.181 -6.377,4.217c-2.519,1.036 -5.407,1.554 -8.666,1.554c-3.229,-0 -6.096,-0.518 -8.599,-1.554c-2.504,-1.036 -4.607,-2.442 -6.311,-4.217c-1.703,-1.776 -2.992,-3.841 -3.866,-6.197c-0.874,-2.355 -1.311,-4.852 -1.311,-7.491Zm6.577,0c0,1.973 0.311,3.841 0.933,5.605c0.623,1.763 1.511,3.317 2.667,4.661c1.155,1.344 2.57,2.411 4.244,3.2c1.674,0.789 3.562,1.184 5.666,1.184c2.103,-0 4.007,-0.395 5.71,-1.184c1.704,-0.789 3.156,-1.856 4.356,-3.2c1.199,-1.344 2.118,-2.898 2.755,-4.661c0.637,-1.764 0.955,-3.632 0.955,-5.605c0,-1.973 -0.318,-3.853 -0.955,-5.641c-0.637,-1.788 -1.556,-3.36 -2.755,-4.717c-1.2,-1.356 -2.652,-2.435 -4.356,-3.237c-1.703,-0.801 -3.607,-1.202 -5.71,-1.202c-2.104,0 -3.992,0.401 -5.666,1.202c-1.674,0.802 -3.089,1.881 -4.244,3.237c-1.156,1.357 -2.044,2.929 -2.667,4.717c-0.622,1.788 -0.933,3.668 -0.933,5.641Z" style="fill-rule:nonzero;"/><path d="M851.652,1096.46l6.577,-0l0,5.549c2.311,-2.22 4.8,-3.823 7.466,-4.809c2.666,-0.987 5.407,-1.48 8.221,-1.48c2.104,0 3.985,0.259 5.644,0.777c1.659,0.518 3.066,1.258 4.222,2.219c1.155,0.962 2.037,2.128 2.644,3.496c0.607,1.369 0.911,2.904 0.911,4.606l0,27.301l-6.577,-0l0,-26.598c0,-1.283 -0.185,-2.362 -0.555,-3.237c-0.371,-0.876 -0.904,-1.585 -1.6,-2.127c-0.697,-0.543 -1.548,-0.937 -2.556,-1.184c-1.007,-0.247 -2.133,-0.37 -3.377,-0.37c-2.015,0 -3.896,0.296 -5.644,0.888c-1.748,0.592 -3.274,1.375 -4.577,2.349c-1.304,0.974 -2.333,2.096 -3.089,3.366c-0.755,1.27 -1.133,2.584 -1.133,3.94l0,22.973l-6.577,-0l-0,-37.659Z" style="fill-rule:nonzero;"/><path d="M937.287,1134.41c-0.414,0.123 -0.955,0.228 -1.622,0.314c-0.666,0.087 -1.222,0.13 -1.666,0.13c-1.837,-0 -3.385,-0.586 -4.644,-1.757c-1.259,-1.172 -1.963,-2.966 -2.111,-5.383c-1.422,1.529 -2.822,2.762 -4.2,3.699c-1.377,0.938 -2.747,1.659 -4.11,2.164c-1.363,0.506 -2.733,0.845 -4.111,1.018c-1.378,0.172 -2.777,0.259 -4.199,0.259c-1.837,-0 -3.556,-0.247 -5.155,-0.74c-1.6,-0.493 -3,-1.196 -4.2,-2.109c-1.2,-0.912 -2.141,-2.01 -2.822,-3.292c-0.681,-1.283 -1.022,-2.713 -1.022,-4.291c-0,-1.579 0.415,-2.929 1.244,-4.051c0.83,-1.122 1.933,-2.09 3.311,-2.904c1.378,-0.814 2.933,-1.498 4.666,-2.053c1.733,-0.555 3.511,-1.048 5.333,-1.48c1.822,-0.431 3.607,-0.845 5.355,-1.239c1.748,-0.395 3.311,-0.832 4.688,-1.313c1.378,-0.481 2.482,-1.036 3.311,-1.665c0.83,-0.629 1.244,-1.412 1.244,-2.349c0,-1.085 -0.251,-2.047 -0.755,-2.886c-0.504,-0.838 -1.215,-1.547 -2.133,-2.127c-0.919,-0.579 -2.03,-1.017 -3.333,-1.313c-1.304,-0.296 -2.741,-0.444 -4.311,-0.444c-1.333,0 -2.592,0.142 -3.777,0.426c-1.185,0.283 -2.252,0.696 -3.2,1.239c-0.948,0.542 -1.733,1.208 -2.355,1.997c-0.622,0.79 -1.022,1.702 -1.2,2.738l-6.888,-0c0.148,-1.825 0.74,-3.44 1.777,-4.846c1.037,-1.406 2.356,-2.584 3.956,-3.533c1.599,-0.95 3.414,-1.671 5.443,-2.164c2.03,-0.493 4.111,-0.74 6.244,-0.74c2.311,0 4.496,0.234 6.555,0.703c2.059,0.468 3.874,1.184 5.444,2.145c1.57,0.962 2.814,2.177 3.733,3.644c0.918,1.468 1.378,3.188 1.378,5.161l-0,19.495c-0,0.962 0.288,1.733 0.866,2.312c0.578,0.58 1.296,0.87 2.155,0.87c0.386,-0 0.756,-0.05 1.111,-0.148l0,4.513Zm-10.71,-21.234c-0.918,0.814 -2.11,1.486 -3.577,2.016c-1.466,0.53 -3.037,1.005 -4.711,1.424c-1.673,0.419 -3.355,0.826 -5.043,1.221c-1.689,0.395 -3.222,0.863 -4.6,1.406c-1.378,0.542 -2.496,1.202 -3.355,1.979c-0.859,0.777 -1.289,1.757 -1.289,2.941c0,1.06 0.222,1.96 0.667,2.7c0.444,0.74 1.022,1.35 1.733,1.831c0.711,0.481 1.526,0.833 2.444,1.055c0.918,0.222 1.852,0.333 2.8,0.333c2.725,-0 5.399,-0.691 8.021,-2.072c2.622,-1.381 4.925,-3.502 6.91,-6.363l0,-8.471Z" style="fill-rule:nonzero;"/><rect x="946.486" y="1082.25" width="6.577" height="51.864" style="fill-rule:nonzero;"/><path d="M973.017,1082.25l0,6.399l-6.577,0l-0,-6.399l6.577,-0Zm0,14.205l0,37.659l-6.577,-0l-0,-37.659l6.577,-0Z" style="fill-rule:nonzero;"/><path d="M1009.32,1096.46l0,-8.472c0,-1.035 0.282,-1.997 0.845,-2.885c0.563,-0.888 1.333,-1.659 2.311,-2.312c0.977,-0.654 2.14,-1.159 3.488,-1.517c1.348,-0.357 2.807,-0.536 4.377,-0.536c1.037,-0 2.156,0.105 3.356,0.314c1.199,0.21 2.466,0.574 3.799,1.092l0,4.513c-0.948,-0.346 -1.963,-0.598 -3.044,-0.759c-1.081,-0.16 -2.052,-0.24 -2.911,-0.24c-0.77,-0 -1.503,0.074 -2.2,0.222c-0.696,0.148 -1.296,0.388 -1.799,0.721c-0.504,0.333 -0.904,0.777 -1.2,1.332c-0.296,0.555 -0.445,1.239 -0.445,2.053l0,6.474l7.866,-0l0,4.809l-7.866,-0l0,32.85l-6.577,-0l0,-32.85l-6.666,-0l0,-4.809l6.666,-0Z" style="fill-rule:nonzero;"/><path d="M1069.27,1134.41c-0.415,0.123 -0.956,0.228 -1.622,0.314c-0.667,0.087 -1.223,0.13 -1.667,0.13c-1.837,-0 -3.385,-0.586 -4.644,-1.757c-1.259,-1.172 -1.963,-2.966 -2.111,-5.383c-1.422,1.529 -2.822,2.762 -4.199,3.699c-1.378,0.938 -2.748,1.659 -4.111,2.164c-1.363,0.506 -2.733,0.845 -4.111,1.018c-1.377,0.172 -2.777,0.259 -4.199,0.259c-1.837,-0 -3.555,-0.247 -5.155,-0.74c-1.6,-0.493 -3,-1.196 -4.2,-2.109c-1.2,-0.912 -2.14,-2.01 -2.822,-3.292c-0.681,-1.283 -1.022,-2.713 -1.022,-4.291c0,-1.579 0.415,-2.929 1.244,-4.051c0.83,-1.122 1.934,-2.09 3.311,-2.904c1.378,-0.814 2.933,-1.498 4.666,-2.053c1.734,-0.555 3.511,-1.048 5.333,-1.48c1.822,-0.431 3.607,-0.845 5.355,-1.239c1.748,-0.395 3.311,-0.832 4.689,-1.313c1.377,-0.481 2.481,-1.036 3.31,-1.665c0.83,-0.629 1.245,-1.412 1.245,-2.349c-0,-1.085 -0.252,-2.047 -0.756,-2.886c-0.504,-0.838 -1.215,-1.547 -2.133,-2.127c-0.918,-0.579 -2.029,-1.017 -3.333,-1.313c-1.304,-0.296 -2.74,-0.444 -4.311,-0.444c-1.333,0 -2.592,0.142 -3.777,0.426c-1.185,0.283 -2.252,0.696 -3.2,1.239c-0.948,0.542 -1.733,1.208 -2.355,1.997c-0.622,0.79 -1.022,1.702 -1.2,2.738l-6.888,-0c0.148,-1.825 0.741,-3.44 1.778,-4.846c1.036,-1.406 2.355,-2.584 3.955,-3.533c1.6,-0.95 3.414,-1.671 5.444,-2.164c2.029,-0.493 4.11,-0.74 6.243,-0.74c2.311,0 4.496,0.234 6.555,0.703c2.059,0.468 3.874,1.184 5.444,2.145c1.57,0.962 2.815,2.177 3.733,3.644c0.918,1.468 1.378,3.188 1.378,5.161l-0,19.495c-0,0.962 0.289,1.733 0.866,2.312c0.578,0.58 1.296,0.87 2.156,0.87c0.385,-0 0.755,-0.05 1.111,-0.148l-0,4.513Zm-10.71,-21.234c-0.919,0.814 -2.111,1.486 -3.578,2.016c-1.466,0.53 -3.037,1.005 -4.71,1.424c-1.674,0.419 -3.356,0.826 -5.044,1.221c-1.689,0.395 -3.222,0.863 -4.6,1.406c-1.377,0.542 -2.496,1.202 -3.355,1.979c-0.859,0.777 -1.289,1.757 -1.289,2.941c0,1.06 0.222,1.96 0.667,2.7c0.444,0.74 1.022,1.35 1.733,1.831c0.711,0.481 1.526,0.833 2.444,1.055c0.919,0.222 1.852,0.333 2.8,0.333c2.725,-0 5.399,-0.691 8.021,-2.072c2.622,-1.381 4.926,-3.502 6.911,-6.363l-0,-8.471Z" style="fill-rule:nonzero;"/><path d="M1087.14,1086.03l0,10.432l8,-0l-0,4.661l-8,0l0,24.674c0,0.814 0.126,1.499 0.378,2.054c0.252,0.554 0.593,0.998 1.022,1.331c0.43,0.333 0.941,0.568 1.533,0.703c0.593,0.136 1.23,0.204 1.911,0.204c0.83,-0 1.689,-0.068 2.578,-0.204c0.889,-0.135 1.659,-0.265 2.311,-0.388l-0,4.476c-0.771,0.197 -1.77,0.395 -3,0.592c-1.229,0.197 -2.496,0.296 -3.8,0.296c-1.125,-0 -2.259,-0.13 -3.399,-0.389c-1.141,-0.259 -2.163,-0.672 -3.067,-1.239c-0.903,-0.567 -1.636,-1.301 -2.199,-2.201c-0.563,-0.9 -0.845,-2.004 -0.845,-3.311l0,-26.598l-6.932,0l-0,-4.661l6.932,-0l0,-10.432l6.577,-0Z" style="fill-rule:nonzero;"/><path d="M1114.6,1086.03l0,10.432l7.999,-0l0,4.661l-7.999,0l0,24.674c0,0.814 0.126,1.499 0.378,2.054c0.252,0.554 0.592,0.998 1.022,1.331c0.43,0.333 0.941,0.568 1.533,0.703c0.593,0.136 1.23,0.204 1.911,0.204c0.83,-0 1.689,-0.068 2.578,-0.204c0.888,-0.135 1.659,-0.265 2.31,-0.388l0,4.476c-0.77,0.197 -1.77,0.395 -2.999,0.592c-1.23,0.197 -2.496,0.296 -3.8,0.296c-1.126,-0 -2.259,-0.13 -3.399,-0.389c-1.141,-0.259 -2.163,-0.672 -3.067,-1.239c-0.903,-0.567 -1.637,-1.301 -2.2,-2.201c-0.562,-0.9 -0.844,-2.004 -0.844,-3.311l0,-26.598l-6.933,0l0,-4.661l6.933,-0l0,-10.432l6.577,-0Z" style="fill-rule:nonzero;"/><path d="M1137.27,1116.21c0.03,1.727 0.393,3.422 1.089,5.087c0.696,1.664 1.644,3.144 2.844,4.439c1.2,1.295 2.615,2.343 4.244,3.144c1.63,0.802 3.393,1.203 5.289,1.203c6.399,-0 10.65,-2.479 12.754,-7.436l5.999,0c-0.503,1.924 -1.348,3.644 -2.533,5.161c-1.185,1.516 -2.622,2.799 -4.31,3.847c-1.689,1.048 -3.556,1.843 -5.6,2.386c-2.044,0.542 -4.148,0.814 -6.31,0.814c-3.111,-0 -5.918,-0.555 -8.422,-1.665c-2.503,-1.11 -4.644,-2.589 -6.421,-4.439c-1.778,-1.85 -3.141,-3.989 -4.089,-6.418c-0.948,-2.43 -1.422,-4.976 -1.422,-7.64c0,-2.49 0.474,-4.883 1.422,-7.176c0.948,-2.294 2.304,-4.316 4.067,-6.067c1.762,-1.751 3.895,-3.144 6.399,-4.18c2.503,-1.036 5.31,-1.554 8.421,-1.554c3.022,0 5.74,0.469 8.155,1.406c2.415,0.937 4.481,2.232 6.199,3.884c1.719,1.652 3.037,3.588 3.955,5.808c0.919,2.22 1.378,4.624 1.378,7.214l0,2.182l-33.108,0Zm26.309,-4.217c-0.059,-1.578 -0.408,-3.058 -1.045,-4.439c-0.637,-1.381 -1.525,-2.59 -2.666,-3.626c-1.141,-1.035 -2.526,-1.849 -4.155,-2.441c-1.629,-0.592 -3.452,-0.888 -5.466,-0.888c-1.837,0 -3.54,0.321 -5.111,0.962c-1.57,0.641 -2.933,1.492 -4.088,2.552c-1.156,1.061 -2.067,2.276 -2.733,3.644c-0.667,1.369 -1.015,2.781 -1.045,4.236l26.309,-0Z" style="fill-rule:nonzero;"/><path d="M1207.88,1082.25l0,6.399l-6.577,0l0,-6.399l6.577,-0Zm0,14.205l0,37.659l-6.577,-0l0,-37.659l6.577,-0Z" style="fill-rule:nonzero;"/><path d="M1221.26,1096.46l6.577,-0l-0,5.549c2.311,-2.22 4.799,-3.823 7.466,-4.809c2.666,-0.987 5.406,-1.48 8.221,-1.48c2.103,0 3.985,0.259 5.644,0.777c1.659,0.518 3.066,1.258 4.222,2.219c1.155,0.962 2.036,2.128 2.644,3.496c0.607,1.369 0.911,2.904 0.911,4.606l-0,27.301l-6.577,-0l-0,-26.598c-0,-1.283 -0.185,-2.362 -0.556,-3.237c-0.37,-0.876 -0.903,-1.585 -1.6,-2.127c-0.696,-0.543 -1.548,-0.937 -2.555,-1.184c-1.007,-0.247 -2.133,-0.37 -3.377,-0.37c-2.015,0 -3.896,0.296 -5.644,0.888c-1.748,0.592 -3.274,1.375 -4.577,2.349c-1.304,0.974 -2.334,2.096 -3.089,3.366c-0.756,1.27 -1.133,2.584 -1.133,3.94l-0,22.973l-6.577,-0l-0,-37.659Z" style="fill-rule:nonzero;"/><path d="M1318.54,1107.78c-0.918,-2.614 -2.266,-4.464 -4.044,-5.549c-1.777,-1.085 -4.118,-1.628 -7.021,-1.628c-2.044,0 -3.866,0.382 -5.466,1.147c-1.6,0.764 -2.941,1.788 -4.022,3.07c-1.081,1.283 -1.911,2.762 -2.489,4.44c-0.577,1.677 -0.866,3.428 -0.866,5.253c-0,1.899 0.289,3.779 0.866,5.641c0.578,1.862 1.415,3.52 2.511,4.976c1.096,1.455 2.43,2.632 4,3.532c1.57,0.901 3.348,1.351 5.333,1.351c1.599,-0 3.029,-0.241 4.288,-0.722c1.259,-0.481 2.34,-1.128 3.244,-1.942c0.904,-0.814 1.652,-1.763 2.244,-2.848c0.593,-1.085 1.022,-2.245 1.289,-3.478l7.244,0c-0.326,2.146 -0.985,4.076 -1.978,5.79c-0.992,1.714 -2.281,3.169 -3.866,4.365c-1.585,1.196 -3.452,2.109 -5.6,2.737c-2.147,0.629 -4.525,0.944 -7.132,0.944c-2.192,-0 -4.192,-0.284 -6,-0.851c-1.807,-0.567 -3.414,-1.338 -4.821,-2.312c-1.407,-0.974 -2.63,-2.121 -3.667,-3.441c-1.036,-1.319 -1.888,-2.731 -2.555,-4.235c-0.666,-1.505 -1.163,-3.064 -1.489,-4.68c-0.325,-1.615 -0.488,-3.224 -0.488,-4.827c-0,-2.59 0.459,-5.025 1.377,-7.307c0.919,-2.281 2.23,-4.272 3.933,-5.974c1.704,-1.702 3.755,-3.046 6.155,-4.032c2.4,-0.987 5.096,-1.48 8.088,-1.48c2.607,0 4.926,0.302 6.955,0.906c2.029,0.605 3.785,1.443 5.266,2.516c1.481,1.073 2.696,2.349 3.644,3.829c0.948,1.479 1.63,3.082 2.044,4.809l-6.977,-0Z" style="fill-rule:nonzero;"/><path d="M1372.35,1134.41c-0.415,0.123 -0.956,0.228 -1.622,0.314c-0.667,0.087 -1.222,0.13 -1.667,0.13c-1.836,-0 -3.384,-0.586 -4.644,-1.757c-1.259,-1.172 -1.962,-2.966 -2.11,-5.383c-1.423,1.529 -2.822,2.762 -4.2,3.699c-1.378,0.938 -2.748,1.659 -4.111,2.164c-1.363,0.506 -2.733,0.845 -4.11,1.018c-1.378,0.172 -2.778,0.259 -4.2,0.259c-1.837,-0 -3.555,-0.247 -5.155,-0.74c-1.6,-0.493 -3,-1.196 -4.2,-2.109c-1.199,-0.912 -2.14,-2.01 -2.821,-3.292c-0.682,-1.283 -1.023,-2.713 -1.023,-4.291c0,-1.579 0.415,-2.929 1.245,-4.051c0.829,-1.122 1.933,-2.09 3.311,-2.904c1.377,-0.814 2.933,-1.498 4.666,-2.053c1.733,-0.555 3.51,-1.048 5.332,-1.48c1.822,-0.431 3.607,-0.845 5.355,-1.239c1.748,-0.395 3.311,-0.832 4.689,-1.313c1.377,-0.481 2.481,-1.036 3.311,-1.665c0.829,-0.629 1.244,-1.412 1.244,-2.349c-0,-1.085 -0.252,-2.047 -0.756,-2.886c-0.503,-0.838 -1.214,-1.547 -2.133,-2.127c-0.918,-0.579 -2.029,-1.017 -3.333,-1.313c-1.303,-0.296 -2.74,-0.444 -4.31,-0.444c-1.333,0 -2.593,0.142 -3.778,0.426c-1.185,0.283 -2.251,0.696 -3.199,1.239c-0.948,0.542 -1.734,1.208 -2.356,1.997c-0.622,0.79 -1.022,1.702 -1.2,2.738l-6.888,-0c0.148,-1.825 0.741,-3.44 1.778,-4.846c1.037,-1.406 2.355,-2.584 3.955,-3.533c1.6,-0.95 3.414,-1.671 5.444,-2.164c2.029,-0.493 4.111,-0.74 6.244,-0.74c2.311,0 4.496,0.234 6.555,0.703c2.059,0.468 3.873,1.184 5.443,2.145c1.571,0.962 2.815,2.177 3.733,3.644c0.919,1.468 1.378,3.188 1.378,5.161l0,19.495c0,0.962 0.289,1.733 0.867,2.312c0.577,0.58 1.296,0.87 2.155,0.87c0.385,-0 0.755,-0.05 1.111,-0.148l-0,4.513Zm-10.71,-21.234c-0.918,0.814 -2.111,1.486 -3.577,2.016c-1.467,0.53 -3.037,1.005 -4.711,1.424c-1.674,0.419 -3.355,0.826 -5.044,1.221c-1.689,0.395 -3.222,0.863 -4.6,1.406c-1.377,0.542 -2.496,1.202 -3.355,1.979c-0.859,0.777 -1.288,1.757 -1.288,2.941c-0,1.06 0.222,1.96 0.666,2.7c0.445,0.74 1.022,1.35 1.733,1.831c0.711,0.481 1.526,0.833 2.444,1.055c0.919,0.222 1.852,0.333 2.8,0.333c2.726,-0 5.4,-0.691 8.022,-2.072c2.621,-1.381 4.925,-3.502 6.91,-6.363l-0,-8.471Z" style="fill-rule:nonzero;"/><path d="M1384.04,1122.65c0.029,1.356 0.311,2.503 0.844,3.44c0.533,0.938 1.259,1.702 2.177,2.294c0.919,0.592 1.993,1.023 3.222,1.295c1.23,0.271 2.585,0.407 4.067,0.407c1.185,-0 2.436,-0.093 3.755,-0.278c1.318,-0.185 2.525,-0.499 3.622,-0.943c1.096,-0.444 1.999,-1.042 2.71,-1.794c0.711,-0.752 1.067,-1.708 1.067,-2.867c-0,-1.061 -0.385,-1.961 -1.155,-2.701c-0.771,-0.74 -1.778,-1.393 -3.022,-1.96c-1.245,-0.568 -2.667,-1.079 -4.267,-1.536c-1.599,-0.456 -3.229,-0.931 -4.888,-1.424c-1.659,-0.493 -3.288,-1.029 -4.888,-1.609c-1.6,-0.58 -3.022,-1.276 -4.267,-2.09c-1.244,-0.814 -2.251,-1.776 -3.021,-2.886c-0.771,-1.109 -1.156,-2.441 -1.156,-3.995c0,-1.628 0.43,-3.083 1.289,-4.365c0.859,-1.283 2.007,-2.361 3.444,-3.237c1.437,-0.875 3.089,-1.541 4.955,-1.998c1.866,-0.456 3.807,-0.684 5.822,-0.684c2.281,0 4.399,0.228 6.354,0.684c1.956,0.457 3.667,1.135 5.133,2.035c1.467,0.9 2.637,2.022 3.511,3.366c0.874,1.344 1.355,2.892 1.444,4.643l-6.755,0c-0.148,-0.986 -0.496,-1.85 -1.044,-2.589c-0.548,-0.74 -1.259,-1.351 -2.133,-1.832c-0.874,-0.481 -1.866,-0.838 -2.977,-1.072c-1.111,-0.235 -2.289,-0.352 -3.533,-0.352c-1.452,0 -2.733,0.148 -3.844,0.444c-1.111,0.296 -2.045,0.697 -2.8,1.202c-0.756,0.506 -1.326,1.092 -1.711,1.757c-0.385,0.666 -0.578,1.357 -0.578,2.072c0,0.962 0.385,1.8 1.156,2.516c0.77,0.715 1.777,1.356 3.022,1.923c1.244,0.568 2.666,1.085 4.266,1.554c1.6,0.469 3.229,0.956 4.888,1.461c1.659,0.506 3.289,1.055 4.889,1.646c1.599,0.592 3.021,1.277 4.266,2.054c1.244,0.776 2.251,1.683 3.022,2.719c0.77,1.035 1.155,2.256 1.155,3.662c0,2.022 -0.481,3.742 -1.444,5.16c-0.963,1.418 -2.259,2.578 -3.889,3.478c-1.629,0.9 -3.518,1.56 -5.666,1.979c-2.148,0.419 -4.392,0.629 -6.732,0.629c-2.282,-0 -4.444,-0.253 -6.489,-0.759c-2.044,-0.505 -3.836,-1.264 -5.377,-2.275c-1.54,-1.011 -2.777,-2.281 -3.711,-3.81c-0.933,-1.529 -1.444,-3.317 -1.533,-5.364l6.8,0Z" style="fill-rule:nonzero;"/><path d="M1458.79,1134.41c-0.414,0.123 -0.955,0.228 -1.622,0.314c-0.666,0.087 -1.222,0.13 -1.666,0.13c-1.837,-0 -3.385,-0.586 -4.644,-1.757c-1.259,-1.172 -1.963,-2.966 -2.111,-5.383c-1.422,1.529 -2.822,2.762 -4.2,3.699c-1.377,0.938 -2.748,1.659 -4.11,2.164c-1.363,0.506 -2.733,0.845 -4.111,1.018c-1.378,0.172 -2.778,0.259 -4.2,0.259c-1.836,-0 -3.555,-0.247 -5.155,-0.74c-1.599,-0.493 -2.999,-1.196 -4.199,-2.109c-1.2,-0.912 -2.141,-2.01 -2.822,-3.292c-0.681,-1.283 -1.022,-2.713 -1.022,-4.291c-0,-1.579 0.415,-2.929 1.244,-4.051c0.83,-1.122 1.933,-2.09 3.311,-2.904c1.378,-0.814 2.933,-1.498 4.666,-2.053c1.733,-0.555 3.511,-1.048 5.333,-1.48c1.822,-0.431 3.607,-0.845 5.355,-1.239c1.748,-0.395 3.311,-0.832 4.688,-1.313c1.378,-0.481 2.481,-1.036 3.311,-1.665c0.83,-0.629 1.244,-1.412 1.244,-2.349c0,-1.085 -0.252,-2.047 -0.755,-2.886c-0.504,-0.838 -1.215,-1.547 -2.133,-2.127c-0.919,-0.579 -2.03,-1.017 -3.333,-1.313c-1.304,-0.296 -2.741,-0.444 -4.311,-0.444c-1.333,0 -2.592,0.142 -3.777,0.426c-1.185,0.283 -2.252,0.696 -3.2,1.239c-0.948,0.542 -1.733,1.208 -2.355,1.997c-0.622,0.79 -1.022,1.702 -1.2,2.738l-6.888,-0c0.148,-1.825 0.74,-3.44 1.777,-4.846c1.037,-1.406 2.356,-2.584 3.955,-3.533c1.6,-0.95 3.415,-1.671 5.444,-2.164c2.03,-0.493 4.111,-0.74 6.244,-0.74c2.311,0 4.496,0.234 6.555,0.703c2.059,0.468 3.874,1.184 5.444,2.145c1.57,0.962 2.814,2.177 3.733,3.644c0.918,1.468 1.377,3.188 1.377,5.161l0,19.495c0,0.962 0.289,1.733 0.867,2.312c0.578,0.58 1.296,0.87 2.155,0.87c0.385,-0 0.756,-0.05 1.111,-0.148l0,4.513Zm-10.71,-21.234c-0.918,0.814 -2.111,1.486 -3.577,2.016c-1.467,0.53 -3.037,1.005 -4.711,1.424c-1.674,0.419 -3.355,0.826 -5.044,1.221c-1.688,0.395 -3.222,0.863 -4.599,1.406c-1.378,0.542 -2.496,1.202 -3.355,1.979c-0.86,0.777 -1.289,1.757 -1.289,2.941c-0,1.06 0.222,1.96 0.666,2.7c0.445,0.74 1.023,1.35 1.734,1.831c0.711,0.481 1.525,0.833 2.444,1.055c0.918,0.222 1.851,0.333 2.8,0.333c2.725,-0 5.399,-0.691 8.021,-2.072c2.622,-1.381 4.925,-3.502 6.91,-6.363l0,-8.471Z" style="fill-rule:nonzero;"/></g><g><path d="M580.437,950.528l-92.304,-64.828l-5.657,-49.471c0,-0 61.099,-164.839 405.15,-247.764c0,-0 299.137,-72.787 483.397,64.035l-1.256,59.973l-15.206,57.184" style="fill:#d6852a;"/><path d="M839.312,618.116c-0,0 -57.373,30.126 -86.446,48.837c-24.857,15.997 -54.193,55.721 -32.647,68.503c21.546,12.783 62.027,-16.458 74.063,-33.458c12.036,-17.001 37.241,-51.033 45.03,-83.882Z" style="fill:#a05624;"/><path d="M889.738,620.99c-0,0 -1.243,28.524 -1.761,42.583c-0.614,16.709 -8.849,49.142 16.048,63.965c24.897,14.822 57.346,11.125 62.297,-24.438c0,0 0.24,-18.445 -28.85,-43.076c-29.09,-24.63 -47.734,-39.034 -47.734,-39.034Z" style="fill:#a05624;"/><path d="M940.661,588.573c-0,0 52.407,3.829 75.734,3.781c33.37,-0.069 81.321,1.47 87.08,25.784c5.852,24.703 -18.723,36.195 -34.512,35.212c-27.701,-1.725 -60.972,1.074 -128.302,-64.777Z" style="fill:#a05624;"/><path d="M561.577,899.44l110.964,2.227l222.219,-25.216l214.723,-50.604l189.602,-56.882l55.226,-0.817l-0.025,0.249c-0.509,5.103 -18.939,88.353 -40.003,137.462c-0,0 -35.161,73.947 -325.708,136.477c-0,-0 -218.152,38.401 -334.318,-6.55c0,-0 -54.855,-55.204 -73.82,-85.258l-18.86,-51.088Z" style="fill:#9aa8b8;"/><path d="M493.46,848.39c-0,-0 -2.174,-32.62 -50.154,-7.607c0,-0 -15.517,17.224 -8.685,36.778c6.579,18.832 22.187,41.89 67.519,43.277c3.135,0.099 5.969,1.888 7.408,4.674c4.2,7.821 16.084,23.384 45.721,29.403c0,0 19.395,2.268 47.577,-14.297c2.445,-1.396 5.528,-0.939 7.463,1.107c6.585,6.679 23.415,19.648 51.938,14.651c0,0 26.896,0.923 42.093,-20.383c0.814,-1.182 2.124,-1.928 3.556,-2.025c1.433,-0.097 2.831,0.465 3.798,1.526c8.221,7.189 28.677,20.605 66.304,19.164c0,0 31.15,1.869 69.153,-28.141c1.818,-1.417 4.302,-1.626 6.331,-0.532c9.83,4.859 39.521,17.416 73.079,11.255c0,-0 45.215,-5.107 69.483,-39.04c1.721,-2.486 4.971,-3.39 7.729,-2.15c12.699,5.385 47.954,17.947 76.373,5.32c0,-0 43.258,-15.213 58.016,-47.095c1.233,-2.78 3.68,-4.836 6.631,-5.572c6.924,-1.332 20.901,-3.039 39.179,-0.176c26.521,4.154 55.791,-15.553 61.471,-25.234c5.681,-9.681 14.105,-22.147 21.242,-24.203c7.137,-2.057 53.98,16.665 90.953,-34.52c-0,-0 7.272,-10.958 10.546,-19.821c0.666,-2.182 2.7,-3.656 4.981,-3.609c4.203,0.243 10.939,-0.112 15.19,-3.367c0,0 12.603,-8.93 14.722,-17.244c0,-0 23.685,4.138 25.132,-24.654c1.447,-28.792 -20.937,-39.955 -31.296,-45.038c-10.359,-5.082 -17.751,-1.721 -25.968,1.193c0,0 -0.43,12.988 -13.019,16.724c0,0 -19.091,0.249 -43.096,15.392c-24.004,15.144 -10.594,24.577 -32.048,25.8c-21.454,1.222 -40.013,0.228 -56.5,10.922c-13.513,8.765 -17.331,25.646 -20.464,32.402c-1.955,1.497 -4.369,2.269 -6.83,2.185c-10.44,-0.045 -35.177,-0.513 -46.178,3.803c-12.689,4.978 -16.205,12.623 -26.957,20.634c-2.284,1.778 -5.174,2.591 -8.049,2.265c-7.744,-0.527 -25.404,-0.637 -43.314,7.598c-23.915,10.996 -21.566,24.591 -31.412,26.125c-9.846,1.534 -27.189,-16.911 -68.605,-9.56c-0,0 -27.017,5.561 -41.719,27.03c-0,0 -2.34,5.535 -8.404,5.859c-6.065,0.325 -14.529,-9.15 -32.663,-4.884c-18.134,4.266 -26.164,5.418 -46.936,17.211c0,-0 -5.67,5.459 -18.096,3.147c-12.425,-2.312 -41.109,-16.694 -60.915,-9.626c-19.806,7.068 -19.358,15.054 -32.958,6.818c-13.601,-8.236 -29.035,-23.672 -67.084,1.081c-0,0 -8.272,8.835 -23.31,4.819c-15.038,-4.016 -23.42,-17.681 -54.044,1.473c-0,0 -11.603,8.048 -23.13,2.259c-11.528,-5.79 -29.554,-36.363 -61.299,-14.596c0,0 -7.356,5.33 -10.455,1.479Z" style="fill:#e9b479;"/><path d="M561.577,874.846c-0,0 0.262,-5.541 -11.332,-14.272c-5.9,-4.443 -19.009,-9.148 -23.238,-2.33c-4.228,6.817 -2.617,14.236 7.309,16.72c9.925,2.483 25.198,8.078 27.261,-0.118Z" style="fill:#fff;"/><path d="M609.446,865.84c0,-0 3.333,11.641 25.009,15.469c-0,0 9.028,1.199 13.226,-5.736c4.199,-6.935 -8.218,-9.697 -15.612,-11.6c-7.394,-1.902 -21.706,-4.961 -22.623,1.867Z" style="fill:#fff;"/><path d="M887.704,860.747c0,0 16.051,3.77 26.537,-4.38c10.485,-8.151 -8.51,-10.397 -17.003,-10.18c-8.494,0.216 -27.109,6.914 -9.534,14.56Z" style="fill:#fff;"/><path d="M983.331,823.578c-0,0 3.045,13.149 22.029,15.444c18.984,2.295 24.167,-5.665 26.504,-11.05c2.337,-5.385 -14.679,-15.133 -24.638,-15.592c-9.959,-0.46 -24.063,1.33 -23.895,11.198Z" style="fill:#fff;"/><path d="M1118.01,789.112c-0,0 7.534,3.131 15.747,-4.731c7.44,-7.122 15.115,2.365 6.553,17.06c-5.712,9.804 -29.938,15.55 -40.393,7.503c-10.455,-8.047 -2.684,-18.719 2.359,-20.505c7.119,-2.521 15.734,0.673 15.734,0.673Z" style="fill:#fff;"/><path d="M1259.45,718.796c0,0 18.973,-2.962 25.748,-0.032c6.775,2.929 -1.09,10.358 -8.999,16.678c-7.909,6.321 -25.028,5.957 -26.376,-3.325c-1.348,-9.282 4.864,-12.098 9.627,-13.321Z" style="fill:#fff;"/><path d="M1344.39,689.046c0,-0 3.572,9.895 24.168,-6.278c0,0 6.968,-7.061 11.375,-8.819c3.281,-1.309 6.771,-4.626 4.909,-8.285c-1.862,-3.659 -10.916,-0.403 -14.654,5.336c-5.167,7.931 -12.586,5.176 -15.396,6.054c-5.846,1.828 -13.836,6.167 -10.402,11.992Z" style="fill:#fff;"/></g><g><path d="M810.677,388.529c-0,0 23.359,16.641 23.004,49.352c-0.356,32.711 -19.167,35.806 -17.494,75.449c-0,0 1.061,12.103 19.18,24.971c0,-0 14.244,14.283 9.96,27.932c-0,-0 -8.178,-13.932 -32.861,-24.813c-29.227,-12.884 -24.295,-33.92 -21.213,-49.143c5.302,-26.189 23.31,-40.293 24.684,-72.901c0,0 -0.394,-19.832 -5.26,-30.847Z" style="fill:#fff;"/><path d="M961.579,371.085c0,0 25.709,15.665 23.107,51.328c-2.601,35.662 -21.301,47.432 -26.084,64.771c-2.669,9.677 -5.84,21.188 3.608,40.054c0,0 -26.521,-0.634 -26.134,-36.827c0.476,-44.43 33.266,-41.077 30.987,-83.677c0,0 -0.149,-23.361 -5.484,-35.649Z" style="fill:#fff;"/><path d="M878.026,171.049c-0,0 -25.118,19.113 -24.048,60.47c1.071,41.356 38.884,57.92 38.916,103.572c0.033,45.651 -35.457,109.222 -30.725,147.215c4.732,37.993 16.482,41.009 38.321,44.932c-0,0 -15.963,-8.491 -14.127,-38.351c1.835,-29.859 49.523,-56.212 49.709,-129.916c0.186,-73.705 -63.253,-96.448 -63.786,-147.592c-0,0 -2.672,-22.559 5.74,-40.33Z" style="fill:#fff;"/></g><g><path d="M227.55,465.864c-6.048,2.589 -12.396,5.645 -19.042,9.168c-6.646,3.523 -13.39,6.938 -20.231,10.244c-6.842,3.307 -13.765,6.162 -20.768,8.566c-7.003,2.404 -13.85,3.748 -20.541,4.034c-6.691,0.285 -13.212,-0.763 -19.564,-3.145c-6.351,-2.382 -12.332,-6.673 -17.942,-12.872c-6.654,-7.353 -11.993,-16.224 -16.017,-26.612c-4.025,-10.388 -6.811,-21.437 -8.361,-33.147c-1.549,-11.71 -1.842,-23.77 -0.878,-36.18c0.963,-12.411 3.005,-24.355 6.125,-35.832c3.119,-11.476 7.332,-22.107 12.639,-31.892c5.307,-9.784 11.636,-18.004 18.989,-24.658c5.335,-4.827 11.426,-8.963 18.275,-12.406c6.849,-3.444 13.91,-5.639 21.185,-6.583c7.274,-0.945 14.369,-0.35 21.283,1.785c6.914,2.134 13.176,6.302 18.787,12.501c3.392,3.749 6.111,8.565 8.158,14.449c2.046,5.884 3.513,12.359 4.399,19.424c0.887,7.065 1.141,14.374 0.764,21.926c-0.377,7.553 -1.286,14.735 -2.727,21.546c-1.441,6.812 -3.473,13.043 -6.096,18.694c-2.622,5.651 -5.735,10.107 -9.34,13.369c-3.46,3.131 -7.25,4.594 -11.37,4.388c-4.119,-0.205 -7.679,-1.966 -10.68,-5.282c-2.218,-2.451 -3.295,-5.017 -3.23,-7.698c0.065,-2.682 0.585,-5.512 1.56,-8.492c3.117,-7.279 5.365,-13.705 6.744,-19.281c1.38,-5.575 2.179,-10.56 2.399,-14.954c0.178,-3.571 -0.18,-7.443 -1.073,-11.618c-0.893,-4.174 -2.271,-7.581 -4.136,-10.221c-1.864,-2.64 -4.3,-4.173 -7.307,-4.598c-3.008,-0.425 -6.53,1.188 -10.567,4.842c-4.037,3.653 -7.629,8.739 -10.776,15.259c-3.148,6.519 -5.679,13.792 -7.594,21.819c-1.915,8.027 -3.226,16.359 -3.932,24.996c-0.707,8.638 -0.745,16.999 -0.116,25.084c0.629,8.084 1.946,15.481 3.951,22.189c2.006,6.708 4.835,12.08 8.488,16.117c2.088,2.307 6.214,2.375 12.38,0.205c6.165,-2.17 13.543,-5.175 22.132,-9.014c8.589,-3.838 17.986,-8.016 28.192,-12.531c10.206,-4.515 20.354,-7.863 30.444,-10.044c10.089,-2.181 19.717,-2.699 28.883,-1.553c9.167,1.146 17.012,5.323 23.535,12.532c5.48,6.056 9.004,13.356 10.574,21.9c1.57,8.545 1.667,17.636 0.291,27.272c-1.376,9.637 -3.832,19.53 -7.367,29.678c-3.535,10.148 -7.733,19.782 -12.593,28.9c-4.86,9.119 -9.954,17.4 -15.282,24.843c-5.327,7.443 -10.442,13.383 -15.344,17.819c-2.451,2.218 -5.333,4.105 -8.645,5.66c-3.313,1.555 -6.7,2.522 -10.16,2.9c-3.461,0.378 -6.818,0.073 -10.073,-0.916c-3.254,-0.988 -6.121,-2.852 -8.6,-5.591c-3.653,-4.037 -5.399,-8.358 -5.238,-12.961c0.161,-4.604 1.861,-9.028 5.102,-13.271c3.892,-3.523 7.996,-7.826 12.311,-12.911c4.315,-5.085 8.445,-10.592 12.389,-16.521c3.944,-5.929 7.453,-12.121 10.529,-18.575c3.075,-6.455 5.255,-12.885 6.538,-19.291c3.185,-14.158 2.181,-23.019 -3.01,-26.582c-5.191,-3.563 -14.673,-2.522 -28.446,3.123Z" style="fill:#efd7c6;fill-rule:nonzero;"/><path d="M335.247,351.236c0.251,3.732 0.455,7.665 0.612,11.798c0.157,4.133 -0.02,8.188 -0.532,12.163c-0.512,3.976 -1.637,7.702 -3.373,11.177c-1.736,3.476 -4.34,6.288 -7.813,8.437c-5.456,3.377 -10.815,4.693 -16.078,3.949c-5.263,-0.745 -10.217,-2.652 -14.862,-5.723c-4.644,-3.071 -8.848,-6.815 -12.611,-11.232c-3.762,-4.417 -6.923,-8.692 -9.481,-12.826c-1.944,-3.141 -4.546,-7.991 -7.805,-14.55c-3.258,-6.558 -6.021,-13.424 -8.288,-20.596c-2.266,-7.172 -3.427,-13.943 -3.481,-20.312c-0.055,-6.369 2.15,-10.935 6.614,-13.698c3.142,-1.944 6.551,-2.625 10.227,-2.042c3.677,0.583 6.539,2.528 8.585,5.835c3.479,5.621 6.358,11.843 8.637,18.665c2.278,6.822 5.362,13.374 9.25,19.657c6.754,10.913 10.916,15.883 12.487,14.911c1.571,-0.972 1.034,-7.843 -1.61,-20.613c-0.992,-4.189 -1.983,-8.377 -2.975,-12.566c-0.991,-4.188 -1.628,-8.081 -1.911,-11.679c-0.284,-3.598 -0.053,-6.828 0.691,-9.69c0.745,-2.861 2.522,-5.162 5.333,-6.902c3.141,-1.944 6.529,-2.382 10.162,-1.315c3.633,1.067 7.386,2.974 11.259,5.722c3.874,2.748 7.735,5.847 11.584,9.296c3.85,3.448 7.546,6.649 11.088,9.602c3.543,2.952 6.841,5.141 9.896,6.567c3.054,1.425 5.656,1.472 7.806,0.142c1.818,-1.126 2.769,-2.915 2.852,-5.367c0.083,-2.452 -0.261,-5.041 -1.032,-7.765c-0.772,-2.724 -1.775,-5.361 -3.011,-7.912c-1.236,-2.551 -2.314,-4.571 -3.235,-6.059c-3.786,-6.117 -8.305,-12.125 -13.555,-18.022c-5.251,-5.897 -10.214,-11.515 -14.89,-16.853c-2.669,-2.465 -5.53,-4.41 -8.585,-5.835c-3.054,-1.425 -5.451,-3.543 -7.191,-6.354c-2.046,-3.307 -2.623,-7.009 -1.729,-11.107c0.894,-4.097 2.829,-7.067 5.805,-8.909c5.457,-3.377 11.605,-3.695 18.447,-0.955c6.841,2.741 13.542,6.825 20.104,12.254c6.561,5.429 12.554,11.325 17.977,17.687c5.424,6.361 9.364,11.526 11.82,15.494c3.581,5.787 6.557,12.35 8.925,19.687c2.369,7.338 3.538,14.676 3.506,22.013c-0.033,7.338 -1.47,14.344 -4.313,21.02c-2.843,6.676 -7.736,12.163 -14.681,16.461c-4.464,2.763 -8.768,4.398 -12.914,4.905c-4.145,0.507 -8.298,0.448 -12.458,-0.178c-4.161,-0.627 -8.304,-1.778 -12.429,-3.456c-4.125,-1.677 -8.4,-3.319 -12.824,-4.926Z" style="fill:#efd7c6;fill-rule:nonzero;"/><path d="M451.831,218.683c-3.933,1.682 -6.514,4.055 -7.742,7.118c-1.228,3.062 -1.779,6.47 -1.655,10.224c0.329,4.723 1.244,9.83 2.746,15.321c1.502,5.49 3.649,10.388 6.441,14.692c2.792,4.305 6.262,7.473 10.41,9.506c4.147,2.033 9.081,1.827 14.802,-0.62c4.291,-1.835 8.046,-4.181 11.265,-7.038c3.22,-2.857 6.094,-5.778 8.624,-8.763c2.53,-2.985 4.779,-5.639 6.747,-7.961c1.968,-2.321 3.756,-3.826 5.365,-4.514c2.682,-1.147 5.471,-1.177 8.368,-0.09c2.897,1.088 4.881,2.883 5.951,5.386c2.447,5.721 2.902,11.236 1.366,16.546c-1.536,5.309 -4.183,10.247 -7.939,14.815c-7.591,8.955 -16.098,15.765 -25.523,20.43c-9.425,4.665 -18.854,6.847 -28.288,6.546c-9.434,-0.301 -18.234,-3.2 -26.399,-8.695c-8.166,-5.496 -14.657,-13.876 -19.474,-25.139c-3.211,-7.509 -5.292,-15.713 -6.242,-24.611c-0.951,-8.899 -0.522,-17.541 1.284,-25.927c1.807,-8.386 5.03,-16.055 9.67,-23.009c4.639,-6.954 10.981,-12.151 19.027,-15.591c4.648,-1.988 9.749,-3.165 15.302,-3.531c5.554,-0.366 10.947,0.13 16.18,1.487c5.233,1.358 9.999,3.602 14.299,6.733c4.3,3.131 7.481,7.11 9.546,11.937c1.988,4.649 2.896,9.494 2.726,14.537c-0.169,5.042 -1.22,9.879 -3.151,14.512c-1.932,4.632 -4.578,8.83 -7.938,12.594c-3.36,3.763 -7.275,6.6 -11.745,8.511c-4.827,2.065 -9.372,2.316 -13.635,0.756c-4.262,-1.561 -7.464,-4.845 -9.605,-9.851c-1.911,-4.469 -2.24,-8.082 -0.987,-10.839c1.254,-2.756 3.209,-5.231 5.866,-7.425c4.036,-3.418 5.398,-6.168 4.085,-8.25c-1.313,-2.082 -4.562,-2.014 -9.747,0.203Z" style="fill:#efd7c6;fill-rule:nonzero;"/><path d="M573.508,175.319c-4.107,1.195 -6.955,3.239 -8.543,6.132c-1.588,2.892 -2.547,6.209 -2.875,9.95c-0.244,4.729 0.049,9.909 0.878,15.54c0.829,5.632 2.37,10.753 4.623,15.362c2.253,4.61 5.316,8.174 9.188,10.692c3.872,2.518 8.795,2.908 14.769,1.169c4.481,-1.304 8.491,-3.181 12.031,-5.629c3.541,-2.448 6.746,-5.001 9.618,-7.659c2.871,-2.659 5.424,-5.022 7.657,-7.09c2.233,-2.067 4.19,-3.346 5.87,-3.835c2.801,-0.815 5.574,-0.508 8.318,0.921c2.745,1.428 4.498,3.45 5.259,6.063c1.739,5.975 1.526,11.504 -0.639,16.59c-2.165,5.085 -5.388,9.669 -9.668,13.75c-8.614,7.975 -17.881,13.71 -27.799,17.205c-9.919,3.494 -19.542,4.523 -28.871,3.087c-9.329,-1.436 -17.715,-5.374 -25.159,-11.814c-7.443,-6.441 -12.877,-15.542 -16.301,-27.303c-2.282,-7.842 -3.359,-16.236 -3.229,-25.185c0.129,-8.948 1.596,-17.476 4.4,-25.582c2.805,-8.107 6.929,-15.332 12.373,-21.676c5.444,-6.344 12.367,-10.738 20.768,-13.184c4.854,-1.413 10.06,-1.966 15.617,-1.66c5.557,0.307 10.851,1.449 15.882,3.427c5.031,1.979 9.492,4.781 13.383,8.408c3.891,3.626 6.57,7.96 8.037,13.001c1.413,4.854 1.731,9.773 0.955,14.759c-0.777,4.985 -2.403,9.66 -4.879,14.026c-2.476,4.366 -5.608,8.214 -9.398,11.545c-3.79,3.331 -8.018,5.675 -12.685,7.034c-5.041,1.467 -9.583,1.169 -13.627,-0.894c-4.043,-2.064 -6.825,-5.709 -8.347,-10.936c-1.359,-4.668 -1.25,-8.294 0.327,-10.879c1.576,-2.586 3.815,-4.807 6.718,-6.664c4.419,-2.907 6.102,-5.472 5.05,-7.697c-1.053,-2.226 -4.286,-2.55 -9.701,-0.974Z" style="fill:#efd7c6;fill-rule:nonzero;"/><path d="M668.041,184.506c-2.72,0.217 -5.407,0.331 -8.061,0.341c-2.653,0.011 -5.062,-0.311 -7.227,-0.965c-2.165,-0.655 -4.018,-1.848 -5.56,-3.58c-1.542,-1.732 -2.591,-4.425 -3.146,-8.077c-0.643,-4.229 0.153,-7.399 2.389,-9.509c2.236,-2.11 4.818,-3.88 7.748,-5.309c2.93,-1.429 5.708,-2.884 8.334,-4.365c2.627,-1.482 3.98,-3.9 4.06,-7.256c0.23,-4.952 0.474,-11.43 0.731,-19.435c0.258,-8.005 1.114,-15.953 2.569,-23.845c1.455,-7.892 3.736,-14.877 6.843,-20.955c3.108,-6.078 7.737,-9.585 13.889,-10.52c4.421,-0.673 8.463,0.04 12.126,2.138c3.663,2.098 5.859,5.55 6.59,10.356c1.375,9.035 1.613,18.685 0.716,28.951c-0.897,10.265 -1.413,20.129 -1.547,29.59l12.687,-1.93c2.307,-0.351 5.109,-0.679 8.406,-0.983c3.297,-0.305 6.509,-0.204 9.635,0.304c3.125,0.508 5.892,1.563 8.299,3.163c2.407,1.601 3.873,4.132 4.4,7.592c0.614,4.037 -0.615,7.272 -3.687,9.706c-3.072,2.434 -6.863,4.338 -11.374,5.713c-4.512,1.374 -9.218,2.435 -14.12,3.18c-4.902,0.746 -8.876,1.449 -11.923,2.109c0.768,8.93 1.896,17.314 3.383,25.152c1.487,7.838 3.316,14.689 5.487,20.554c2.17,5.866 4.831,10.427 7.982,13.685c3.15,3.258 6.703,4.635 10.659,4.132c3.955,-0.504 8.428,-3.102 13.418,-7.794c4.99,-4.693 10.465,-12.016 16.425,-21.97c2.683,-4.342 5.11,-8.103 7.281,-11.286c2.171,-3.182 4.314,-4.934 6.429,-5.255c3.268,-0.497 6.223,0.184 8.866,2.044c2.643,1.86 4.214,4.424 4.711,7.692c0.643,4.229 0.095,9.032 -1.644,14.411c-1.739,5.378 -4.04,10.94 -6.903,16.686c-7.832,15.745 -16.053,27.321 -24.662,34.728c-8.609,7.407 -17.158,11.657 -25.645,12.751c-8.488,1.095 -16.671,-0.66 -24.55,-5.264c-7.879,-4.604 -14.923,-11.154 -21.132,-19.65c-6.21,-8.496 -11.326,-18.535 -15.35,-30.118c-4.023,-11.582 -6.534,-23.886 -7.532,-36.912Z" style="fill:#efd7c6;fill-rule:nonzero;"/><path d="M1127.63,95.394c-3.901,8.49 -8.559,18.355 -13.975,29.593c-5.416,11.239 -11.097,23.215 -17.044,35.929c-5.946,12.714 -11.957,25.712 -18.031,38.995c-6.075,13.283 -11.711,26.166 -16.908,38.65c-5.198,12.483 -9.765,24.162 -13.704,35.035c-3.939,10.873 -6.782,20.199 -8.53,27.977c-1.066,4.743 -1.568,9.413 -1.505,14.011c0.063,4.598 -0.396,9.078 -1.377,13.442c-1.237,5.501 -4.073,9.697 -8.509,12.586c-4.436,2.889 -9.025,3.801 -13.768,2.735c-4.553,-1.023 -8.095,-3.663 -10.626,-7.919c-2.532,-4.256 -4.239,-9.074 -5.122,-14.454c-0.884,-5.38 -1.181,-10.928 -0.893,-16.643c0.288,-5.714 0.858,-10.469 1.711,-14.263c7.462,-33.2 16.165,-65.273 26.111,-96.221c9.945,-30.947 22.768,-61.397 38.468,-91.35c-4.771,1.718 -9.33,3.384 -13.679,4.997c-4.348,1.614 -8.894,1.887 -13.637,0.821c-2.845,-0.639 -5.399,-1.911 -7.662,-3.814c-2.263,-1.904 -4.134,-4.218 -5.615,-6.942c-1.48,-2.725 -2.459,-5.685 -2.936,-8.881c-0.477,-3.197 -0.332,-6.502 0.435,-9.917c1.876,-8.347 6.053,-15.181 12.53,-20.501c6.477,-5.321 14.222,-9.409 23.235,-12.266c9.012,-2.857 18.839,-4.684 29.482,-5.481c10.642,-0.797 21.05,-0.998 31.226,-0.605c10.175,0.394 19.616,1.171 28.324,2.331c8.707,1.16 15.717,2.336 21.029,3.53c4.174,0.938 9.665,2.222 16.473,3.852c6.808,1.63 13.921,3.677 21.339,6.142c7.418,2.464 14.788,5.366 22.108,8.706c7.321,3.339 13.771,7.23 19.349,11.673c5.578,4.442 9.779,9.472 12.602,15.089c2.823,5.617 3.446,11.935 1.868,18.954c-1.023,4.553 -3.615,8.106 -7.776,10.658c-4.161,2.553 -8.139,3.403 -11.933,2.55c-1.328,-0.299 -2.755,-1.267 -4.28,-2.905c-1.525,-1.639 -3.587,-3.547 -6.186,-5.726c-2.6,-2.178 -5.99,-4.385 -10.171,-6.62c-4.181,-2.235 -9.497,-4.078 -15.947,-5.528c-12.521,-2.814 -25.118,-4.848 -37.79,-6.102c-12.672,-1.254 -25.568,-1.96 -38.686,-2.118Zm18.699,77.743c4.933,1.108 10.982,2.568 18.149,4.378c7.166,1.81 13.914,4.373 20.244,7.689c6.329,3.316 11.465,7.509 15.407,12.581c3.943,5.071 5.082,11.306 3.419,18.705c-1.364,6.07 -4.718,10.797 -10.062,14.18c-5.344,3.382 -11.242,4.349 -17.692,2.899c-5.122,-1.151 -9.985,-2.792 -14.588,-4.923c-4.603,-2.131 -9.185,-4.356 -13.745,-6.677c-4.561,-2.32 -9.143,-4.546 -13.746,-6.676c-4.603,-2.131 -9.466,-3.772 -14.588,-4.923c-3.035,-0.683 -6.34,-1.276 -9.913,-1.78c-3.574,-0.504 -6.804,-1.43 -9.69,-2.776c-2.886,-1.346 -5.069,-3.381 -6.55,-6.106c-1.48,-2.724 -1.644,-6.647 -0.493,-11.769c1.151,-5.122 3.939,-8.88 8.363,-11.274c4.424,-2.394 9.469,-4 15.134,-4.82c5.665,-0.819 11.286,-1 16.863,-0.544c5.577,0.456 10.073,1.068 13.488,1.836Z" style="fill:#efd7c6;fill-rule:nonzero;"/><path d="M1313.6,174.939c1.979,0.812 4.09,1.941 6.334,3.388c2.244,1.446 4.242,3.107 5.995,4.982c1.752,1.875 3.034,3.873 3.846,5.992c0.811,2.12 0.774,4.259 -0.112,6.418c-1.033,2.518 -2.483,4.13 -4.349,4.835c-1.866,0.706 -4.332,0.955 -7.4,0.747c-5.193,-0.66 -10.735,0.166 -16.623,2.479c-5.888,2.312 -11.413,5.404 -16.575,9.276c-5.162,3.872 -9.787,8.227 -13.874,13.065c-4.088,4.838 -6.98,9.326 -8.678,13.463c-1.181,2.879 -1.905,6.05 -2.17,9.514c-0.266,3.464 0.119,6.88 1.154,10.247c1.035,3.367 2.705,6.47 5.008,9.307c2.304,2.837 5.345,5.03 9.122,6.581c3.058,1.255 6.665,1.684 10.821,1.288c4.156,-0.397 8.182,-1.372 12.078,-2.926c3.895,-1.554 7.415,-3.472 10.559,-5.755c3.144,-2.283 5.232,-4.684 6.266,-7.202c1.55,-3.778 1.168,-7.455 -1.148,-11.033c-2.315,-3.577 -5.045,-7.167 -8.19,-10.77c-3.146,-3.603 -5.895,-7.148 -8.247,-10.635c-2.352,-3.488 -2.827,-6.94 -1.424,-10.358c1.403,-3.418 4.086,-5.732 8.051,-6.943c3.965,-1.21 8.016,-0.966 12.153,0.732c5.936,2.436 11.107,5.714 15.512,9.833c4.404,4.12 7.929,8.719 10.574,13.798c2.645,5.079 4.195,10.392 4.651,15.938c0.456,5.547 -0.349,10.839 -2.417,15.876c-2.657,6.476 -7.079,12.385 -13.265,17.728c-6.186,5.343 -13.257,9.64 -21.212,12.891c-7.955,3.252 -16.295,5.136 -25.02,5.654c-8.724,0.518 -16.954,-0.81 -24.69,-3.985c-13.671,-5.61 -23.325,-13.198 -28.963,-22.763c-5.638,-9.565 -8.355,-19.718 -8.151,-30.458c0.204,-10.741 2.926,-21.342 8.164,-31.802c5.239,-10.461 12.098,-19.364 20.577,-26.709c8.479,-7.345 18.084,-12.441 28.816,-15.288c10.732,-2.847 21.674,-1.982 32.827,2.595Z" style="fill:#efd7c6;fill-rule:nonzero;"/><path d="M1413.82,296.689c3.384,1.916 6.67,3.61 9.86,5.08c3.189,1.471 6.392,3.116 9.607,4.936c3.384,1.916 5.818,4.523 7.302,7.822c1.485,3.298 1.221,6.724 -0.791,10.277c-2.012,3.553 -4.644,5.638 -7.898,6.254c-3.253,0.616 -6.666,0.527 -10.239,-0.267c-3.573,-0.793 -7.176,-1.828 -10.811,-3.104c-3.635,-1.276 -6.888,-1.944 -9.758,-2.005c-1.143,3.598 -2.613,8.464 -4.41,14.597c-1.796,6.133 -3.688,12.435 -5.676,18.907c-1.988,6.471 -4.002,12.593 -6.041,18.366c-2.039,5.772 -3.921,10.181 -5.645,13.227c-1.629,2.876 -4.112,4.599 -7.45,5.167c-3.338,0.568 -6.446,0.037 -9.322,-1.591c-2.031,-1.15 -3.319,-3.611 -3.864,-7.383c-0.546,-3.772 -0.6,-8.216 -0.162,-13.331c0.438,-5.114 1.2,-10.604 2.286,-16.469c1.086,-5.865 2.312,-11.484 3.677,-16.855c1.365,-5.372 2.594,-10.207 3.687,-14.504c1.092,-4.297 1.863,-7.436 2.314,-9.415c-1.185,-0.671 -2.266,-1.227 -3.245,-1.67c-0.979,-0.442 -1.975,-0.95 -2.991,-1.525c-2.369,-1.341 -4.756,-2.749 -7.161,-4.223c-2.406,-1.473 -4.451,-3.19 -6.135,-5.148c-1.684,-1.959 -2.748,-4.126 -3.191,-6.5c-0.444,-2.373 0.244,-5.168 2.065,-8.383c1.437,-2.538 3.467,-4.349 6.092,-5.433c2.624,-1.083 5.486,-1.698 8.585,-1.843c3.098,-0.145 6.204,-0.006 9.317,0.415c3.113,0.422 5.828,0.954 8.146,1.596c1.329,-5.504 3.326,-11.3 5.99,-17.389c2.665,-6.088 5.904,-11.908 9.717,-17.458c3.812,-5.55 8.164,-10.572 13.054,-15.065c4.89,-4.494 10.206,-7.964 15.949,-10.411c5.742,-2.446 11.87,-3.502 18.383,-3.166c6.513,0.336 13.323,2.516 20.43,6.539c3.384,1.916 6.24,4.371 8.567,7.364c2.328,2.994 4.053,6.261 5.176,9.802c1.124,3.541 1.543,7.241 1.257,11.101c-0.287,3.86 -1.435,7.567 -3.447,11.12c-1.82,3.215 -4.354,5.914 -7.601,8.098c-3.248,2.183 -6.817,2.174 -10.709,-0.03c-1.692,-0.958 -3.023,-2.158 -3.994,-3.602c-0.97,-1.443 -1.808,-2.923 -2.514,-4.439c-1.557,-3.564 -3.471,-5.709 -5.741,-6.435c-2.27,-0.727 -4.747,-0.397 -7.431,0.988c-2.683,1.386 -5.406,3.531 -8.168,6.436c-2.762,2.905 -5.342,6.081 -7.74,9.527c-2.398,3.447 -4.452,6.976 -6.162,10.589c-1.71,3.612 -2.765,6.758 -3.164,9.436Z" style="fill:#efd7c6;fill-rule:nonzero;"/><path d="M1511.89,361.515c3.133,2.304 6.196,4.374 9.189,6.212c2.993,1.838 5.978,3.85 8.955,6.038c3.134,2.304 5.242,5.181 6.325,8.631c1.084,3.451 0.416,6.822 -2.002,10.112c-2.418,3.29 -5.279,5.048 -8.583,5.275c-3.303,0.226 -6.682,-0.266 -10.135,-1.477c-3.454,-1.211 -6.91,-2.665 -10.368,-4.363c-3.458,-1.697 -6.609,-2.746 -9.452,-3.146c-1.561,3.438 -3.596,8.095 -6.106,13.972c-2.51,5.878 -5.135,11.912 -7.876,18.102c-2.74,6.191 -5.464,12.032 -8.172,17.522c-2.708,5.49 -5.099,9.646 -7.171,12.466c-1.958,2.663 -4.628,4.08 -8.01,4.248c-3.382,0.169 -6.404,-0.725 -9.068,-2.683c-1.88,-1.382 -2.868,-3.978 -2.963,-7.788c-0.095,-3.811 0.378,-8.229 1.418,-13.256c1.04,-5.027 2.447,-10.388 4.219,-16.083c1.773,-5.696 3.655,-11.129 5.647,-16.302c1.992,-5.172 3.784,-9.827 5.378,-13.965c1.593,-4.138 2.731,-7.163 3.412,-9.075c-1.097,-0.806 -2.105,-1.487 -3.024,-2.042c-0.919,-0.555 -1.849,-1.178 -2.789,-1.869c-2.193,-1.612 -4.397,-3.292 -6.611,-5.04c-2.215,-1.748 -4.042,-3.694 -5.482,-5.839c-1.441,-2.144 -2.24,-4.422 -2.4,-6.831c-0.159,-2.41 0.855,-5.103 3.043,-8.08c1.727,-2.35 3.958,-3.908 6.693,-4.673c2.734,-0.766 5.648,-1.037 8.742,-0.814c3.094,0.223 6.162,0.728 9.203,1.515c3.041,0.787 5.674,1.637 7.9,2.549c1.971,-5.308 4.64,-10.828 8.007,-16.558c3.367,-5.73 7.271,-11.125 11.714,-16.185c4.443,-5.059 9.359,-9.531 14.746,-13.414c5.388,-3.883 11.078,-6.699 17.069,-8.449c5.992,-1.749 12.202,-2.072 18.629,-0.967c6.428,1.104 12.932,4.075 19.512,8.911c3.134,2.303 5.679,5.079 7.636,8.327c1.956,3.248 3.283,6.696 3.979,10.345c0.696,3.649 0.674,7.373 -0.067,11.172c-0.741,3.799 -2.321,7.344 -4.739,10.634c-2.188,2.977 -5.023,5.357 -8.506,7.141c-3.483,1.784 -7.026,1.351 -10.63,-1.297c-1.567,-1.152 -2.746,-2.502 -3.539,-4.05c-0.793,-1.548 -1.45,-3.116 -1.971,-4.706c-1.125,-3.722 -2.771,-6.079 -4.939,-7.069c-2.168,-0.99 -4.667,-0.956 -7.496,0.102c-2.828,1.058 -5.786,2.866 -8.872,5.423c-3.087,2.558 -6.025,5.406 -8.814,8.544c-2.789,3.139 -5.247,6.4 -7.372,9.785c-2.126,3.384 -3.546,6.383 -4.259,8.995Z" style="fill:#efd7c6;fill-rule:nonzero;"/><path d="M1584.07,515.592c4.098,-3.605 7.748,-7.379 10.95,-11.321c3.202,-3.943 6.231,-8.055 9.087,-12.339c-5.491,1.141 -11.257,2.352 -17.298,3.634c-6.04,1.282 -12.051,1.911 -18.032,1.886c-5.982,-0.024 -11.832,-1.012 -17.553,-2.964c-5.721,-1.951 -10.869,-5.591 -15.446,-10.92c-6.518,-7.514 -9.74,-15.671 -9.668,-24.472c0.073,-8.8 2.037,-17.442 5.893,-25.927c3.856,-8.484 8.919,-16.462 15.188,-23.933c6.27,-7.472 12.342,-13.772 18.217,-18.903c3.552,-3.051 8.2,-6.661 13.944,-10.828c5.744,-4.167 11.768,-7.718 18.071,-10.652c6.303,-2.934 12.479,-4.561 18.526,-4.88c6.048,-0.32 11.22,1.91 15.518,6.691c2.913,3.416 4.285,7.703 4.117,12.86c-0.168,5.157 -2.029,9.262 -5.581,12.313c-0.955,0.969 -2.938,2.428 -5.949,4.375c-3.01,1.947 -6.534,4.276 -10.57,6.987c-4.036,2.711 -8.413,5.768 -13.132,9.172c-4.718,3.403 -9.264,6.909 -13.637,10.516c-8.338,6.799 -14.235,13.408 -17.694,19.827c-3.459,6.419 -4.521,11.583 -3.186,15.492c1.335,3.909 5.031,6.253 11.086,7.034c6.056,0.78 14.431,-0.932 25.124,-5.136c6.17,-2.383 12.507,-5.351 19.012,-8.906c6.505,-3.554 12.563,-7.07 18.175,-10.549c5.612,-3.479 10.641,-6.713 15.087,-9.702c4.447,-2.989 7.697,-5.11 9.75,-6.363c3.422,-2.087 7.089,-3.524 11.002,-4.309c3.913,-0.785 7.326,0.53 10.239,3.946c3.051,3.553 4.144,7.291 3.279,11.216c-0.865,3.926 -2.385,7.546 -4.56,10.862c-5.72,7.467 -12.256,16.04 -19.61,25.719c-7.353,9.679 -14.946,19.463 -22.779,29.352c-7.833,9.889 -15.704,19.331 -23.612,28.327c-7.909,8.996 -15.211,16.337 -21.906,22.024c-6.695,5.687 -14.051,10.45 -22.066,14.291c-8.015,3.84 -16.144,6.203 -24.387,7.089c-8.244,0.886 -16.363,-0.017 -24.357,-2.708c-7.995,-2.691 -15.251,-7.793 -21.769,-15.307c-2.08,-2.322 -3.751,-5.198 -5.014,-8.626c-1.263,-3.428 -1.976,-6.929 -2.14,-10.502c-0.164,-3.574 0.326,-7.049 1.47,-10.427c1.144,-3.377 3.083,-6.175 5.816,-8.395c3.005,-2.773 6.637,-4.312 10.897,-4.618c4.26,-0.307 7.916,1.316 10.967,4.869c4.709,4.64 9.202,7.906 13.478,9.8c4.277,1.893 8.75,2.548 13.421,1.963c4.67,-0.584 9.538,-2.339 14.604,-5.264c5.066,-2.925 10.742,-7.023 17.028,-12.294Z" style="fill:#efd7c6;fill-rule:nonzero;"/></g></g></svg>